<svg xmlns="http://www.w3.org/2000/svg" version="1.1" xmlns:xlink="http://www.w3.org/1999/xlink" xmlns:svgjs="http://svgjs.dev/svgjs" width="128" height="128" viewBox="0 0 128 128"><g transform="matrix(0.8046875,0,0,0.8046875,12.612792253521128,12.612792253521128)"><svg viewBox="0 0 142 142" data-background-color="#ffffff" preserveAspectRatio="xMidYMid meet" height="128" width="128" xmlns="http://www.w3.org/2000/svg" xmlns:xlink="http://www.w3.org/1999/xlink"><g id="tight-bounds" transform="matrix(1,0,0,1,-0.15550000000000352,-0.15550000000000352)"><svg viewBox="0 0 142.31066447748242 142.31066447748242" height="142.31066447748242" width="142.31066447748242"><g><svg></svg></g><g><svg viewBox="0 0 142.31066447748242 142.31066447748242" height="142.31066447748242" width="142.31066447748242"><g><path d="M0 71.155c0-39.298 31.857-71.155 71.155-71.155 39.298 0 71.155 31.857 71.156 71.155 0 39.298-31.857 71.155-71.156 71.156-39.298 0-71.155-31.857-71.155-71.156zM71.155 134.886c35.197 0 63.731-28.533 63.731-63.731 0-35.197-28.533-63.731-63.731-63.73-35.197 0-63.731 28.533-63.73 63.73 0 35.197 28.533 63.731 63.73 63.731z" data-fill-palette-color="tertiary" fill="#ff5858" stroke="transparent"></path><ellipse rx="68.30911894919156" ry="68.30911894919156" cx="71.15533223874121" cy="71.15533223874121" fill="#ff5858" stroke="transparent" stroke-width="0" fill-opacity="1" data-fill-palette-color="tertiary"></ellipse></g><g transform="matrix(1,0,0,1,40.30080429853773,29.989108276746492)"><svg viewBox="0 0 61.709055880406964 82.33244792398943" height="82.33244792398943" width="61.709055880406964"><g><svg viewBox="0 0 61.709055880406964 82.33244792398943" height="82.33244792398943" width="61.709055880406964"><g><svg viewBox="0 0 61.709055880406964 82.33244792398943" height="82.33244792398943" width="61.709055880406964"><g id="textblocktransform"><svg viewBox="0 0 61.709055880406964 82.33244792398943" height="82.33244792398943" width="61.709055880406964" id="textblock"><g><svg viewBox="0 0 61.709055880406964 82.33244792398943" height="82.33244792398943" width="61.709055880406964"><g transform="matrix(1,0,0,1,0,0)"><svg width="61.709055880406964" viewBox="1.45 -24.8 19.150000000000002 25.55" height="82.33244792398943" data-palette-color="#ffffff"><path d="M9.65 0.75L9.65 0.75Q7.2 0.75 5.25 0.18 3.3-0.4 1.65-1.25L1.65-1.25 1.7-7.2 2.2-7.2 3.9-4.2Q5-2.2 6.33-1.23 7.65-0.25 9.7-0.25L9.7-0.25Q12.1-0.25 13.58-1.33 15.05-2.4 15.05-4.2L15.05-4.2Q15.05-5.85 14-6.9 12.95-7.95 10.1-8.8L10.1-8.8 8-9.45Q4.95-10.35 3.2-12.25 1.45-14.15 1.45-16.9L1.45-16.9Q1.45-20.2 4.05-22.5 6.65-24.8 11.5-24.8L11.5-24.8Q13.45-24.8 15.18-24.38 16.9-23.95 18.5-23.1L18.5-23.1 18.2-17.7 17.7-17.7 15.95-20.8Q15-22.45 14.08-23.13 13.15-23.8 11.3-23.8L11.3-23.8Q9.6-23.8 8.1-22.85 6.6-21.9 6.6-20.15L6.6-20.15Q6.6-18.45 7.88-17.45 9.15-16.45 11.65-15.6L11.65-15.6 13.9-14.95Q17.5-13.85 19.05-11.93 20.6-10 20.6-7.3L20.6-7.3Q20.6-3.65 17.73-1.45 14.85 0.75 9.65 0.75Z" opacity="1" transform="matrix(1,0,0,1,0,0)" fill="#ffffff" class="wordmark-text-0" data-fill-palette-color="quaternary" id="text-0"></path></svg></g></svg></g></svg></g></svg></g><g></g></svg></g></svg></g></svg></g><defs></defs></svg><rect width="142.31066447748242" height="142.31066447748242" fill="none" stroke="none" visibility="hidden"></rect></g></svg></g></svg>